<svg width="192" height="192" viewBox="0 0 192 192" fill="none" xmlns="http://www.w3.org/2000/svg">
<path d="M66.6597 22.6105C70.3095 16.2889 78.3933 14.1232 84.715 17.773C91.0363 21.4229 93.2022 29.5061 89.5525 35.8276L70.4626 68.8913L143.692 111.169C150.013 114.819 152.179 122.903 148.529 129.225L125.34 169.389C121.69 175.711 113.607 177.877 107.285 174.227C100.964 170.577 98.7978 162.494 102.448 156.172L119.028 127.453L57.2455 91.7834L40.6651 120.502C37.0153 126.824 28.9322 128.99 22.6105 125.34C16.2889 121.691 14.1232 113.607 17.773 107.285L66.6597 22.6105ZM151.335 71.4972C154.985 65.1759 163.068 63.01 169.389 66.6597C175.711 70.3095 177.877 78.3934 174.227 84.715L173.97 85.1606C170.32 91.4822 162.237 93.6479 155.915 89.9981C149.593 86.3483 147.428 78.2644 151.077 71.9429L151.335 71.4972Z" fill="white"/>
</svg>
